<?xml version="1.0" encoding="UTF-8" standalone="no"?>
<!DOCTYPE svg PUBLIC "-//W3C//DTD SVG 1.1//EN" "http://www.w3.org/Graphics/SVG/1.1/DTD/svg11.dtd">
<svg width="100%" height="100%" viewBox="0 0 138 138" version="1.1" xmlns="http://www.w3.org/2000/svg" xmlns:xlink="http://www.w3.org/1999/xlink" xml:space="preserve" xmlns:serif="http://www.serif.com/" style="fill-rule:evenodd;clip-rule:evenodd;stroke-linejoin:round;stroke-miterlimit:2;">
    <g transform="matrix(0.599121,0.440991,-0.440991,0.599121,61.9734,-37.004)">
        <g transform="matrix(0.793446,0,0,0.793446,12.3655,-5.21159)">
            <path d="M65.778,103.348L122.548,91.099C128.616,89.789 134.456,94.098 134.995,100.282L138.335,138.593L64.781,145.545L57.906,115.746C56.613,110.141 60.155,104.562 65.778,103.348Z" style="fill:rgb(0,188,212);fill-rule:nonzero;"/>
        </g>
        <g transform="matrix(0.793446,0,0,0.793446,12.3655,-5.21159)">
            <path d="M160.722,81.517C160.722,81.517 160.298,83.509 159.346,86.597C156.98,94.261 151.363,108.637 140.824,115.735C135.016,119.894 133.244,120.969 133.244,120.969C133.244,120.969 140.609,143.121 140.564,154.031C140.519,164.941 140.237,218.803 140.237,218.803C133.568,223.156 125.774,220.951 125.774,220.951L122.712,214.243L118.757,205.597L108.577,183.333C108.577,183.333 98.827,185.892 92.68,184.519C87.019,189.984 76.813,196.821 78.125,200.905C78.443,201.66 78.957,202.515 79.558,203.428C79.153,203.776 78.75,204.138 78.355,204.459C77.592,205.084 76.809,205.658 76.048,206.176C71.31,209.438 66.675,210.98 64.18,211.635L63.971,211.684L63.92,211.702L63.802,211.727C62.864,211.957 62.312,212.04 62.312,212.04L62.311,212.027C55.297,204.923 48.541,196.55 50.31,192.191C50.727,191.174 51.34,189.99 52.116,188.71C56.955,180.686 67.504,168.848 67.504,168.848L65.809,154.899L64.666,145.552C64.666,145.552 40.196,162.873 37.883,164.27L34.319,159.71L32.767,157.719C33.819,157.171 66.442,119.341 69.16,113.284C71.877,107.226 87.225,107.204 87.225,107.204L126.629,100.943C126.629,100.943 140.222,103.463 151.492,78.711L160.722,81.517Z" style="fill:rgb(237,225,201);fill-rule:nonzero;"/>
        </g>
        <g transform="matrix(0.793446,0,0,0.793446,12.3655,-5.21159)">
            <path d="M124.201,94.171C123.901,96.978 124.455,99.524 126.735,100.932C117.114,109.045 95.702,119.471 69.265,113.273C69.475,111.142 70.533,109.352 70.391,107.058C70.251,104.509 68.634,101.364 62.754,96.467C87.55,95.118 107.424,89.36 118.791,85.26C125.267,82.929 128.979,81.121 129.261,80.999C129.158,81.17 128.312,82.551 127.341,84.546C126.048,87.174 124.529,90.853 124.201,94.171Z" style="fill:rgb(199,189,169);fill-rule:nonzero;"/>
        </g>
        <g transform="matrix(0.793446,0,0,0.793446,12.3655,-5.21159)">
            <path d="M87.55,183.26C87.55,183.26 87.996,183.367 88.782,183.499C89.565,183.645 90.697,183.767 92.049,183.895C92.726,183.953 93.46,184.001 94.238,184.025C95.016,184.048 95.836,184.055 96.683,184.052C97.531,184.057 98.406,184.015 99.295,183.98C100.185,183.947 101.087,183.869 101.987,183.795C102.886,183.698 103.79,183.641 104.671,183.504C105.553,183.383 106.426,183.288 107.262,183.135C108.09,182.988 108.941,182.904 109.645,182.705C110.385,182.51 111.081,182.269 111.718,182.036C112.991,181.561 114.057,181.151 114.791,180.837C115.53,180.529 115.952,180.354 115.952,180.354C115.952,180.354 115.57,180.608 114.877,181.011C114.177,181.399 113.192,181.99 111.933,182.557C111.304,182.842 110.616,183.14 109.856,183.403C109.063,183.687 108.269,183.828 107.418,184.001C106.575,184.182 105.698,184.337 104.801,184.461C103.908,184.611 102.989,184.683 102.075,184.791C101.157,184.855 100.238,184.921 99.331,184.944C98.425,184.975 97.532,184.962 96.669,184.93C95.806,184.913 94.973,184.83 94.187,184.749C93.4,184.666 92.659,184.562 91.978,184.452C90.615,184.231 89.506,183.913 88.736,183.688C87.968,183.451 87.55,183.26 87.55,183.26Z" style="fill:rgb(212,201,180);fill-rule:nonzero;"/>
        </g>
        <g transform="matrix(0.793446,0,0,0.793446,12.3655,-5.21159)">
            <path d="M65.103,119.425C65.103,119.425 62.367,123.736 54.441,132.636C54.14,132.56 53.853,132.496 53.552,132.42C49.511,131.419 45.898,130.28 42.673,129.035C41.257,128.499 39.917,127.929 38.644,127.352C34.791,125.57 31.589,123.629 28.961,121.561C27.611,120.498 26.405,119.407 25.331,118.302C21.668,114.472 19.582,110.388 18.501,106.347C17.935,104.202 17.651,102.082 17.572,100.008C17.499,98.508 17.536,97.049 17.632,95.638C17.908,91.939 20.322,88.662 23.612,85.855C24.546,85.066 25.537,84.311 26.572,83.604C30.076,81.19 34.029,79.25 37.327,77.832C41.355,76.098 44.384,75.174 44.384,75.174C44.384,75.174 48.98,78.481 48.817,85.492C46.231,86.705 44.018,87.906 42.136,89.086C39.942,90.472 38.199,91.825 36.838,93.139C36.254,93.692 35.749,94.238 35.309,94.763C33.053,97.504 32.418,100.038 32.673,102.267C32.761,102.992 32.938,103.682 33.179,104.338C33.837,106.073 34.988,107.543 36.172,108.677C36.72,109.208 37.274,109.659 37.792,110.033L38.021,110.183C39.24,111.006 41.351,111.938 43.865,112.895C46.1,113.734 48.659,114.607 51.211,115.414C53.969,116.28 56.709,117.094 59.018,117.752C62.566,118.764 65.103,119.425 65.103,119.425Z" style="fill:rgb(26,49,64);fill-rule:nonzero;"/>
        </g>
        <g transform="matrix(0.793446,0,0,0.793446,12.3655,-5.21159)">
            <path d="M149.388,239.224C148.343,244.67 142.646,247.696 137.776,245.752C133.656,244.104 128.005,227.49 126.351,222.413C126.055,221.482 125.893,220.938 125.893,220.938C125.893,220.938 133.674,223.146 140.356,218.791L144.555,231.122L144.67,231.471C144.67,231.471 148.699,234.182 149.388,239.224Z" style="fill:rgb(0,188,212);fill-rule:nonzero;"/>
        </g>
        <g transform="matrix(0.793446,0,0,0.793446,12.3655,-5.21159)">
            <path d="M88.083,217.479C87.325,220.894 75.97,236.071 75.97,236.071C75.97,236.071 72.316,233.882 71.31,230.701C70.611,228.57 71.107,225.983 74.663,223.297C72.363,221.423 67.297,217.056 62.353,212.049C62.433,212.041 62.97,211.946 63.843,211.737L64.012,211.693L64.221,211.645C67.082,210.911 72.827,209.002 78.396,204.468C78.594,204.314 78.791,204.147 78.987,203.98C79.182,203.8 79.391,203.619 79.599,203.437C82.741,208.188 88.724,214.61 88.083,217.479Z" style="fill:rgb(0,188,212);fill-rule:nonzero;"/>
        </g>
        <g transform="matrix(0.793446,0,0,0.793446,12.3655,-5.21159)">
            <path d="M160.828,81.506L151.597,78.7C151.602,78.099 151.466,76.898 151.307,75.473C150.887,71.631 150.23,66.119 151.21,66.179C152.554,66.268 153.305,67.086 153.305,67.086C153.305,67.086 155.855,59.39 157.191,59.4C158.475,59.429 157.83,64.607 157.781,65.039C157.902,64.787 158.952,62.651 160.067,61.028C160.868,59.852 161.722,58.937 162.281,59.186C163.678,59.791 162.852,64.761 162.852,64.761C162.852,64.761 164.967,61.434 166.747,61.479C168.526,61.511 165.531,66.943 165.531,66.943C165.531,66.943 168.865,64.826 170.254,65.352C171.641,65.864 160.828,81.506 160.828,81.506Z" style="fill:rgb(0,188,212);fill-rule:nonzero;"/>
        </g>
        <g transform="matrix(0.793446,0,0,0.793446,12.3655,-5.21159)">
            <path d="M160.828,81.506L151.597,78.7C151.602,78.099 151.466,76.898 151.307,75.473C151.727,75.403 152.182,75.41 152.602,75.474C153.7,75.642 154.761,76.094 155.875,76.153C158.289,76.267 160.504,74.425 161.437,72.194C163.192,67.956 161.638,64.511 160.067,61.028C160.868,59.852 161.722,58.937 162.281,59.186C163.678,59.791 162.852,64.761 162.852,64.761C162.852,64.761 164.967,61.434 166.747,61.479C168.526,61.511 165.531,66.943 165.531,66.943C165.531,66.943 168.865,64.826 170.254,65.352C171.641,65.864 160.828,81.506 160.828,81.506Z" style="fill:rgb(0,170,191);fill-rule:nonzero;"/>
        </g>
        <g transform="matrix(0.793446,0,0,0.793446,12.3655,-5.21159)">
            <path d="M127.341,84.546C126.048,87.174 124.529,90.853 124.201,94.171C116.174,101.292 106.155,106.175 95.562,108.059C87.867,109.434 79.903,109.221 72.291,107.491C71.813,107.379 71.157,107.233 70.391,107.058C70.251,104.509 68.634,101.364 62.754,96.467C87.55,95.118 107.424,89.36 118.791,85.26C121.261,85.008 123.708,84.784 126.184,84.584C126.568,84.558 126.952,84.532 127.341,84.546Z" style="fill:rgb(179,169,152);fill-rule:nonzero;"/>
        </g>
        <g transform="matrix(0.793446,0,0,0.793446,12.3655,-5.21159)">
            <path d="M130.302,52.689C130.302,52.689 135.016,48.147 136.597,60.333C138.177,72.518 132.282,72.035 132.282,72.035L130.302,52.689Z" style="fill:rgb(0,188,212);fill-rule:nonzero;"/>
        </g>
        <g transform="matrix(0.793446,0,0,0.793446,12.3655,-5.21159)">
            <path d="M132.713,62.213C134.844,83.041 117.458,101.882 93.88,104.294C70.302,106.707 49.46,91.778 47.329,70.949C45.198,50.121 62.584,31.28 86.162,28.867C109.741,26.455 130.582,41.384 132.713,62.213Z" style="fill:rgb(237,225,201);fill-rule:nonzero;"/>
        </g>
        <g transform="matrix(0.793446,0,0,0.793446,12.3655,-5.21159)">
            <path d="M47.919,68.36C47.919,68.36 41.806,66.019 45.109,77.854C48.411,89.69 53.65,86.944 53.65,86.944L47.919,68.36Z" style="fill:rgb(0,188,212);fill-rule:nonzero;"/>
        </g>
        <g transform="matrix(0.793446,0,0,0.793446,12.3655,-5.21159)">
            <path d="M117.287,86.826L75.263,95.958C66.987,97.756 58.82,92.505 57.021,84.229L54.395,72.144C52.596,63.867 57.848,55.7 66.124,53.902L108.148,44.77C116.424,42.971 124.591,48.222 126.389,56.499L129.016,68.584C130.813,76.86 125.563,85.027 117.287,86.826Z" style="fill:rgb(0,188,212);fill-rule:nonzero;"/>
        </g>
        <g transform="matrix(0.793446,0,0,0.793446,12.3655,-5.21159)">
            <path d="M115.298,84.246L76.641,92.646C69.327,94.236 62.108,89.595 60.519,82.28L58.386,72.465C56.796,65.151 61.437,57.932 68.752,56.343L107.409,47.942C114.724,46.353 121.942,50.994 123.531,58.309L125.664,68.124C127.254,75.438 122.613,82.656 115.298,84.246Z" style="fill:rgb(26,49,64);fill-rule:nonzero;"/>
        </g>
        <g transform="matrix(0.793446,0,0,0.793446,12.3655,-5.21159)">
            <path d="M72.335,85.034C69.18,85.034 65.92,83.405 64.124,80.74C61.39,76.684 61.78,71.042 64.271,66.832C66.763,62.622 71.038,59.714 75.584,57.907C80.13,56.1 84.995,55.278 89.799,54.356C93.382,53.669 99.175,50.819 103.328,50.819C103.889,50.819 104.421,50.871 104.913,50.988C110.079,52.214 105.18,55.983 102.32,57.112C95.052,59.979 87.273,63.534 83.753,70.509C81.504,74.968 81.037,80.718 76.97,83.615C75.603,84.589 73.983,85.034 72.335,85.034Z" style="fill:rgb(67,86,98);fill-rule:nonzero;"/>
        </g>
        <g transform="matrix(0.793446,0,0,0.793446,12.3655,-5.21159)">
            <path d="M60.276,207.924C61.427,209.261 62.636,210.512 63.92,211.702L63.802,211.727C62.864,211.957 62.312,212.04 62.312,212.04L62.311,212.027C55.297,204.923 48.541,196.55 50.31,192.191C50.727,191.174 51.34,189.99 52.116,188.71C52.225,195.773 55.629,202.553 60.276,207.924Z" style="fill:rgb(199,189,169);fill-rule:nonzero;"/>
        </g>
        <g transform="matrix(0.793446,0,0,0.793446,12.3655,-5.21159)">
            <path d="M159.346,86.597C156.98,94.261 151.363,108.637 140.824,115.735C135.016,119.894 133.244,120.969 133.244,120.969C133.244,120.969 140.609,143.121 140.564,154.031C140.519,164.941 140.237,218.803 140.237,218.803C133.568,223.156 125.774,220.951 125.774,220.951L122.712,214.243C125.783,217.386 130.653,218.93 134.257,216.585C138.238,214.002 138.669,208.432 138.584,203.689C138.2,183.105 135.833,162.578 131.517,142.45C129.908,134.939 128.11,126.767 131.489,119.867C133.762,115.203 138.072,111.932 141.936,108.467C149.15,102.002 154.099,94.542 159.346,86.597Z" style="fill:rgb(199,189,169);fill-rule:nonzero;"/>
        </g>
        <g transform="matrix(0.793446,0,0,0.793446,12.3655,-5.21159)">
            <path d="M68.734,145.91C68.741,149.113 67.603,152.206 65.809,154.899L64.666,145.552C64.666,145.552 40.196,162.873 37.883,164.27L34.319,159.71L34.539,159.767C38.447,160.649 41.241,159.388 44.493,157.12C49.899,153.337 54.949,149.083 59.596,144.402C60.626,143.376 61.65,142.297 62.959,141.656C64.27,141.028 65.938,140.897 67.12,141.75C68.362,142.665 68.722,144.363 68.734,145.91Z" style="fill:rgb(199,189,169);fill-rule:nonzero;"/>
        </g>
        <g transform="matrix(0.793446,0,0,0.793446,12.3655,-5.21159)">
            <path d="M82.847,152.387C79.282,153.346 75.423,154.666 73.542,157.842C71.027,162.09 73.281,167.67 76.644,171.285C82.544,177.626 91.636,180.564 100.259,179.741C108.881,178.918 116.965,174.579 123.099,168.465C126.247,165.328 129.037,161.442 129.317,157.007C129.896,147.865 121.765,146.478 114.965,147.002C104.108,147.838 93.369,149.556 82.847,152.387Z" style="fill:rgb(250,241,225);fill-rule:nonzero;"/>
        </g>
        <g transform="matrix(0.793446,0,0,0.793446,12.3655,-5.21159)">
            <path d="M118.812,195.811C120.732,198.597 124.085,200.671 127.415,200.074C130.651,199.493 133.052,196.526 133.9,193.349C134.747,190.173 134.326,186.807 133.769,183.566C133.414,181.499 132.913,179.275 131.311,177.921C129.397,176.302 126.519,176.479 124.162,177.331C115.206,180.567 113.657,188.329 118.812,195.811Z" style="fill:rgb(250,241,225);fill-rule:nonzero;"/>
        </g>
        <g transform="matrix(0.793446,0,0,0.793446,12.3655,-5.21159)">
            <path d="M56.651,184.657C54.755,187.384 53.285,191.085 55.029,193.911C56.151,195.728 58.392,196.643 60.527,196.604C62.662,196.565 64.703,195.702 66.543,194.619C68.961,193.195 71.189,191.308 72.51,188.832C74.903,184.348 73.317,178.49 68.022,177.113C63.047,175.82 59.178,181.023 56.651,184.657Z" style="fill:rgb(250,241,225);fill-rule:nonzero;"/>
        </g>
        <g transform="matrix(0.793446,0,0,0.793446,12.3655,-5.21159)">
            <path d="M142.554,233.076C140.19,232.771 137.746,234.555 137.314,236.9C136.883,239.245 138.532,241.781 140.851,242.338C143.169,242.895 145.791,241.384 146.471,239.099C147.152,236.814 145.785,234.115 143.539,233.312L142.554,233.076Z" style="fill:rgb(0,208,235);fill-rule:nonzero;"/>
        </g>
        <g transform="matrix(0.793446,0,0,0.793446,12.3655,-5.21159)">
            <path d="M72.064,218.422C74.687,219.724 78.299,219.501 80.06,217.161C81.074,215.814 81.3,213.915 80.631,212.367C79.963,210.819 78.425,209.682 76.749,209.497C73.261,209.111 69.814,212.1 66.485,212.814C67.568,215.082 69.781,217.289 72.064,218.422Z" style="fill:rgb(0,208,235);fill-rule:nonzero;"/>
        </g>
        <g transform="matrix(0.793446,0,0,0.793446,12.3655,-5.21159)">
            <path d="M62.421,43.751C61.296,44.777 60.194,45.916 59.69,47.353C59.187,48.791 59.444,50.597 60.663,51.51C62.024,52.528 63.936,52.106 65.57,51.639C77.452,48.245 89.334,44.851 101.216,41.456C102.162,41.186 103.168,40.878 103.79,40.117C104.884,38.781 104.208,36.631 102.847,35.568C101.485,34.505 99.686,34.238 97.976,33.993C84.95,32.12 72.545,34.524 62.421,43.751Z" style="fill:rgb(250,241,225);fill-rule:nonzero;"/>
        </g>
        <g transform="matrix(0.793446,0,0,0.793446,12.3655,-5.21159)">
            <path d="M75.614,41.836C75.487,41.836 75.36,41.847 75.233,41.869C74.651,41.969 74.143,42.29 73.802,42.772C73.461,43.255 73.329,43.841 73.429,44.423C73.529,45.005 73.85,45.513 74.333,45.854C74.814,46.195 75.402,46.329 75.983,46.227C76.565,46.127 77.074,45.806 77.415,45.324C77.755,44.841 77.888,44.255 77.788,43.673C77.688,43.091 77.367,42.582 76.884,42.242C76.507,41.976 76.066,41.836 75.614,41.836ZM75.607,47.259C74.073,47.259 72.712,46.154 72.444,44.593C72.144,42.848 73.319,41.184 75.064,40.884C75.91,40.738 76.761,40.93 77.461,41.425C78.162,41.92 78.627,42.658 78.773,43.503C79.073,45.248 77.898,46.912 76.153,47.212C75.97,47.244 75.787,47.259 75.607,47.259Z" style="fill:rgb(29,29,27);fill-rule:nonzero;"/>
        </g>
        <g transform="matrix(0.793446,0,0,0.793446,12.3655,-5.21159)">
            <path d="M84.622,40.285C84.496,40.285 84.369,40.296 84.243,40.318C83.661,40.418 83.152,40.739 82.812,41.221C82.471,41.704 82.338,42.29 82.439,42.872C82.646,44.074 83.797,44.882 84.993,44.676C85.575,44.576 86.083,44.255 86.424,43.773C86.765,43.29 86.897,42.704 86.797,42.122C86.697,41.54 86.376,41.032 85.894,40.691C85.516,40.424 85.075,40.285 84.622,40.285ZM84.616,45.708C83.083,45.708 81.722,44.603 81.453,43.042C81.153,41.297 82.328,39.633 84.073,39.332C85.822,39.033 87.482,40.207 87.782,41.952C88.083,43.697 86.907,45.361 85.163,45.662C84.979,45.693 84.796,45.708 84.616,45.708Z" style="fill:rgb(29,29,27);fill-rule:nonzero;"/>
        </g>
        <g transform="matrix(0.793446,0,0,0.793446,12.3655,-5.21159)">
            <path d="M94.368,38.608C94.241,38.608 94.114,38.619 93.987,38.641C93.405,38.741 92.897,39.061 92.556,39.544C92.215,40.026 92.083,40.612 92.183,41.194C92.283,41.776 92.604,42.285 93.087,42.625C93.569,42.966 94.155,43.101 94.737,42.998C95.939,42.791 96.748,41.646 96.542,40.444C96.441,39.862 96.121,39.354 95.638,39.013C95.261,38.747 94.82,38.608 94.368,38.608ZM94.355,44.031C93.698,44.031 93.058,43.83 92.51,43.442C91.809,42.947 91.343,42.209 91.198,41.364C90.897,39.619 92.073,37.956 93.817,37.655C94.664,37.511 95.515,37.702 96.215,38.196C96.916,38.691 97.381,39.429 97.527,40.274C97.827,42.019 96.652,43.684 94.907,43.984C94.723,44.016 94.538,44.031 94.355,44.031Z" style="fill:rgb(29,29,27);fill-rule:nonzero;"/>
        </g>
        <g transform="matrix(0.793446,0,0,0.793446,12.3655,-5.21159)">
            <path d="M65.809,154.899L90.246,148.733L80.27,146.272L65.366,151.278L65.809,154.899Z" style="fill:rgb(214,203,182);fill-rule:nonzero;"/>
        </g>
        <g transform="matrix(0.793446,0,0,0.793446,12.3655,-5.21159)">
            <path d="M64.781,145.545L78.925,144.323L82.044,148.844L65.608,152.357L64.781,145.545Z" style="fill:rgb(0,188,212);fill-rule:nonzero;"/>
        </g>
        <g transform="matrix(0.793446,0,0,0.793446,12.3655,-5.21159)">
            <path d="M115.867,144.226L139.479,144.431L139.175,141.459L115.867,144.226Z" style="fill:rgb(214,203,182);fill-rule:nonzero;"/>
        </g>
        <g transform="matrix(0.793446,0,0,0.793446,12.3655,-5.21159)">
            <path d="M120.951,137.053L137.503,135.359L139.42,141.801L117.215,144.073L120.951,137.053Z" style="fill:rgb(0,188,212);fill-rule:nonzero;"/>
        </g>
        <g transform="matrix(0.793446,0,0,0.793446,12.3655,-5.21159)">
            <path d="M131.261,100.469L119.082,129.032L117.96,121.781L131.261,100.469Z" style="fill:rgb(214,203,182);fill-rule:nonzero;"/>
        </g>
        <g transform="matrix(0.793446,0,0,0.793446,12.3655,-5.21159)">
            <path d="M113.764,119.445L126.735,100.932L131.261,100.469L119.361,124.83L113.764,119.445Z" style="fill:rgb(0,188,212);fill-rule:nonzero;"/>
        </g>
        <g transform="matrix(0.793446,0,0,0.793446,12.3655,-5.21159)">
            <path d="M66.585,117.428L76.83,132.152L78.25,127.704L66.585,117.428Z" style="fill:rgb(214,203,182);fill-rule:nonzero;"/>
        </g>
        <g transform="matrix(0.793446,0,0,0.793446,12.3655,-5.21159)">
            <path d="M83.82,124.301L69.265,113.273L66.585,117.428L77.015,129.163L83.82,124.301Z" style="fill:rgb(0,188,212);fill-rule:nonzero;"/>
        </g>
        <g transform="matrix(0.793446,0,0,0.793446,12.3655,-5.21159)">
            <path d="M116.112,144.568L86.492,149.667C82.927,150.281 79.539,147.888 78.925,144.323L76.83,132.152C76.216,128.586 78.609,125.198 82.174,124.585L111.794,119.486C115.359,118.872 118.747,121.265 119.361,124.83L121.456,137.001C122.07,140.566 119.677,143.954 116.112,144.568Z" style="fill:rgb(0,188,212);fill-rule:nonzero;"/>
        </g>
        <g transform="matrix(0.793446,0,0,0.793446,12.3655,-5.21159)">
            <path d="M114.003,142.591L87.639,147.13C84.616,147.65 81.744,145.622 81.224,142.599L79.57,132.995C79.05,129.972 81.079,127.1 84.101,126.58L110.465,122.041C113.488,121.521 116.36,123.549 116.881,126.572L118.534,136.176C119.054,139.199 117.026,142.071 114.003,142.591Z" style="fill:rgb(26,49,64);fill-rule:nonzero;"/>
        </g>
        <g transform="matrix(0.793446,0,0,0.793446,12.3655,-5.21159)">
            <path d="M90.794,136.196C91.205,138.472 89.693,140.651 87.416,141.062C85.14,141.472 82.962,139.96 82.551,137.684C82.14,135.408 83.652,133.229 85.929,132.819C88.205,132.408 90.383,133.92 90.794,136.196Z" style="fill:rgb(237,225,201);fill-rule:nonzero;"/>
        </g>
        <g transform="matrix(0.793446,0,0,0.793446,12.3655,-5.21159)">
            <path d="M103.539,133.896C103.95,136.172 102.437,138.351 100.161,138.761C97.884,139.172 95.706,137.66 95.295,135.384C94.884,133.108 96.397,130.929 98.673,130.518C100.95,130.108 103.128,131.62 103.539,133.896Z" style="fill:rgb(237,225,201);fill-rule:nonzero;"/>
        </g>
        <g transform="matrix(0.793446,0,0,0.793446,12.3655,-5.21159)">
            <path d="M116.615,132.233C117.026,134.509 115.514,136.687 113.237,137.098C110.961,137.509 108.783,135.997 108.372,133.721C107.961,131.444 109.473,129.266 111.75,128.855C114.026,128.444 116.204,129.957 116.615,132.233Z" style="fill:rgb(237,225,201);fill-rule:nonzero;"/>
        </g>
        <g transform="matrix(0.793446,0,0,0.793446,12.3655,-5.21159)">
            <path d="M116.824,117.682C116.43,118.442 116.068,119.421 116.596,120.096C117.009,120.624 117.823,120.685 118.435,120.41C119.046,120.134 119.498,119.602 119.913,119.076C121.05,117.634 127.176,109.299 124.515,108.374C121.43,107.301 117.815,115.769 116.824,117.682Z" style="fill:rgb(0,208,235);fill-rule:nonzero;"/>
        </g>
        <g transform="matrix(0.793446,0,0,0.793446,12.3655,-5.21159)">
            <path d="M78.371,125.588C78.566,125.681 78.772,125.773 78.989,125.765C79.467,125.748 79.804,125.229 79.79,124.751C79.776,124.272 79.51,123.841 79.232,123.451C77.716,121.321 75.639,119.666 73.59,118.041C70.844,115.864 69.923,118.502 71.779,120.661C73.564,122.736 75.906,124.418 78.371,125.588Z" style="fill:rgb(0,208,235);fill-rule:nonzero;"/>
        </g>
        <g transform="matrix(0.793446,0,0,0.793446,12.3655,-5.21159)">
            <path d="M122.883,138.592C122.347,138.78 121.794,139.004 121.424,139.437C121.055,139.87 120.94,140.572 121.319,140.997C121.691,141.414 122.338,141.398 122.895,141.349C125.469,141.122 128.043,140.896 130.617,140.67C131.333,140.607 132.069,140.538 132.71,140.213C133.351,139.888 133.883,139.241 133.851,138.522C133.716,135.429 124.415,138.053 122.883,138.592Z" style="fill:rgb(0,208,235);fill-rule:nonzero;"/>
        </g>
        <g transform="matrix(0.793446,0,0,0.793446,12.3655,-5.21159)">
            <path d="M68.686,146.953C68.119,147.088 67.539,147.245 67.079,147.603C66.62,147.96 66.307,148.57 66.466,149.13C66.618,149.671 67.167,150.025 67.722,150.117C68.277,150.208 68.842,150.089 69.392,149.97C71.669,149.476 73.947,148.983 76.225,148.489C76.902,148.342 77.634,148.163 78.068,147.623C80.224,144.943 69.764,146.697 68.686,146.953Z" style="fill:rgb(0,208,235);fill-rule:nonzero;"/>
        </g>
        <g transform="matrix(0.793446,0,0,0.793446,12.3655,-5.21159)">
            <path d="M136.81,99.961C135.835,100.732 134.797,101.519 134.283,102.65C133.769,103.781 134.013,105.368 135.135,105.903C136.2,106.41 137.436,105.777 138.43,105.14C143.194,102.085 147.633,98.521 151.645,94.528C152.963,93.217 154.258,91.825 155.017,90.128C155.937,88.069 156.029,84.561 153.591,83.427C150.822,82.139 150.485,84.534 149.237,86.506C145.989,91.637 141.558,96.208 136.81,99.961Z" style="fill:rgb(250,241,225);fill-rule:nonzero;"/>
        </g>
        <g transform="matrix(0.793446,0,0,0.793446,12.3655,-5.21159)">
            <path d="M43.682,151.324C48.083,150.409 52.034,147.918 55.319,144.848C58.603,141.779 61.288,138.135 63.921,134.491C64.86,133.19 65.822,131.826 66.091,130.244C66.728,126.494 63.488,125.455 60.697,126.94C58.276,128.228 57.667,130.358 56.468,132.572C52.896,139.169 47.473,144.767 43.682,151.324Z" style="fill:rgb(250,241,225);fill-rule:nonzero;"/>
        </g>
        <g transform="matrix(0.793446,0,0,0.793446,12.3655,-5.21159)">
            <path d="M144.555,231.122C143.504,230.896 142.479,230.667 141.923,230.711C140.096,230.858 138.266,231.365 136.662,232.264C138.634,230.794 139.604,228.012 138.842,225.647C137.962,222.92 134.894,221.112 132.078,221.64C131.057,221.838 130.091,222.311 129.076,222.562C128.179,222.8 127.155,222.838 126.351,222.413C126.055,221.482 125.893,220.938 125.893,220.938C125.893,220.938 133.674,223.146 140.356,218.791L144.555,231.122Z" style="fill:rgb(0,170,191);fill-rule:nonzero;"/>
        </g>
        <g transform="matrix(0.793446,0,0,0.793446,12.3655,-5.21159)">
            <path d="M88.083,217.479C87.325,220.894 75.97,236.071 75.97,236.071C75.97,236.071 72.316,233.882 71.31,230.701C71.452,230.66 71.612,230.657 71.771,230.641C79.208,230.147 84.585,224.124 84.783,216.535C84.91,211.77 82.699,206.991 78.987,203.98C79.182,203.8 79.391,203.619 79.599,203.437C82.741,208.188 88.724,214.61 88.083,217.479Z" style="fill:rgb(0,170,191);fill-rule:nonzero;"/>
        </g>
        <g transform="matrix(0.793446,0,0,0.793446,12.3655,-5.21159)">
            <path d="M42.136,89.086C39.942,90.472 38.199,91.825 36.838,93.139C32.659,90.91 29.564,87.275 26.572,83.604C30.076,81.19 34.029,79.25 37.327,77.832C38.698,79.093 39.782,80.69 40.53,82.389C41.453,84.497 41.913,86.773 42.136,89.086Z" style="fill:rgb(32,61,79);fill-rule:nonzero;"/>
        </g>
        <g transform="matrix(0.793446,0,0,0.793446,12.3655,-5.21159)">
            <path d="M35.309,94.763C33.053,97.504 32.418,100.038 32.673,102.267C32.435,102.292 32.196,102.303 31.97,102.312C28.957,102.474 25.948,102.288 22.974,101.791C21.098,101.463 19.18,100.978 17.572,100.008C17.499,98.508 17.536,97.049 17.632,95.638C17.908,91.939 20.322,88.662 23.612,85.855C26.653,87.653 29.819,90.68 32.373,92.421C33.407,93.129 34.456,93.863 35.309,94.763Z" style="fill:rgb(32,61,79);fill-rule:nonzero;"/>
        </g>
        <g transform="matrix(0.793446,0,0,0.793446,12.3655,-5.21159)">
            <path d="M36.172,108.677C36.019,108.879 35.865,109.069 35.696,109.246C33.441,111.733 31.01,114.064 28.425,116.197C27.465,116.989 26.437,117.762 25.331,118.302C21.668,114.472 19.582,110.388 18.501,106.347C18.879,106.255 19.255,106.15 19.645,106.043C24.032,104.833 28.605,104.259 33.152,104.341L33.179,104.338C33.837,106.073 34.988,107.543 36.172,108.677Z" style="fill:rgb(32,61,79);fill-rule:nonzero;"/>
        </g>
        <g transform="matrix(0.793446,0,0,0.793446,12.3655,-5.21159)">
            <path d="M38.021,110.183C37.824,110.337 37.64,110.502 37.442,110.656C33.867,113.678 31.031,117.399 28.961,121.562C31.589,123.629 34.791,125.57 38.644,127.352C40.493,126.121 41.956,124.236 42.825,122.172C44.036,119.258 44.2,116.038 43.865,112.895L38.021,110.183Z" style="fill:rgb(32,61,79);fill-rule:nonzero;"/>
        </g>
        <g transform="matrix(0.793446,0,0,0.793446,12.3655,-5.21159)">
            <path d="M59.316,121.966C58.8,124.622 57.319,126.976 55.871,129.26C55.181,130.345 54.443,131.475 53.552,132.42C49.511,131.419 45.898,130.28 42.673,129.035C43.29,127.103 44.832,124.823 45.565,122.986C46.594,120.385 47.897,117.729 50.155,116.056C50.49,115.808 50.843,115.598 51.211,115.414C53.969,116.28 56.709,117.094 59.018,117.752C59.538,119.047 59.588,120.577 59.316,121.966Z" style="fill:rgb(32,61,79);fill-rule:nonzero;"/>
        </g>
        <g transform="matrix(0.793446,0,0,0.793446,12.3655,-5.21159)">
            <path d="M38.002,164.258C37.234,167.714 33.511,172.553 32.167,172.464C30.823,172.374 33.271,168.119 31.717,168.065C30.148,167.998 31.259,172.33 29.804,173.373C28.362,174.415 25.615,171.572 26.41,168.381C24.205,170.836 22.876,172.974 21.284,172.683C19.694,172.405 22.725,167.196 22.725,167.196C22.725,167.196 19.078,170.693 18.103,169.898C17.446,169.352 18.963,166.954 19.986,165.474C20.488,164.769 20.864,164.277 20.864,164.277C20.864,164.277 18.725,162.934 18.378,161.634C18.039,160.401 30.573,158.451 32.641,157.786C32.745,157.762 32.823,157.74 32.873,157.709L38.002,164.258Z" style="fill:rgb(0,188,212);fill-rule:nonzero;"/>
        </g>
        <g transform="matrix(0.793446,0,0,0.793446,12.3655,-5.21159)">
            <path d="M38.002,164.258C37.234,167.714 33.511,172.553 32.167,172.464C30.823,172.374 33.271,168.119 31.717,168.065C30.148,167.998 31.259,172.33 29.804,173.373C28.362,174.415 25.615,171.572 26.41,168.381C24.205,170.836 22.876,172.974 21.284,172.683C19.694,172.405 22.725,167.196 22.725,167.196C22.725,167.196 19.078,170.693 18.103,169.898C17.446,169.352 18.963,166.954 19.986,165.474C20.972,165.854 22.005,166.162 23,166.234C25.877,166.433 28.899,165.443 30.801,163.286C32.118,161.804 32.814,159.743 32.641,157.786C32.745,157.762 32.823,157.74 32.873,157.709L38.002,164.258Z" style="fill:rgb(0,170,191);fill-rule:nonzero;"/>
        </g>
        <g transform="matrix(0.793446,0,0,0.793446,12.3655,-5.21159)">
            <path d="M35.738,79.527C34.252,80.019 32.703,80.549 31.617,81.676C30.531,82.803 30.093,84.723 31.084,85.935C31.878,86.907 33.348,87.114 34.536,86.708C35.724,86.303 36.674,85.4 37.486,84.442C38.237,83.556 38.94,82.482 38.819,81.326C38.699,80.169 37.319,79.158 36.348,79.797L35.738,79.527Z" style="fill:rgb(38,73,94);fill-rule:nonzero;"/>
        </g>
        <g transform="matrix(0.793446,0,0,0.793446,12.3655,-5.21159)">
            <path d="M20.323,96.213C20.481,97.789 21.467,99.584 23.052,99.56C24.544,99.538 25.462,97.967 26.076,96.607C26.583,95.485 27.094,94.347 27.289,93.132C27.483,91.917 27.325,90.594 26.592,89.606C23.19,85.019 20.059,93.585 20.323,96.213Z" style="fill:rgb(38,73,94);fill-rule:nonzero;"/>
        </g>
        <g transform="matrix(0.793446,0,0,0.793446,12.3655,-5.21159)">
            <path d="M26.738,114.143C27.374,114.664 28.292,115.128 28.972,114.665C29.616,114.227 29.574,113.275 29.416,112.512C29.166,111.301 28.803,110.112 28.334,108.968C27.819,107.71 27.104,106.431 25.894,105.813C23.704,104.695 22.542,106.268 22.787,108.144C23.079,110.378 25.067,112.774 26.738,114.143Z" style="fill:rgb(38,73,94);fill-rule:nonzero;"/>
        </g>
        <g transform="matrix(0.793446,0,0,0.793446,12.3655,-5.21159)">
            <path d="M37.133,122.583C38.1,122.944 39.278,123.186 40.092,122.551C40.851,121.958 40.949,120.784 40.539,119.912C40.129,119.041 39.328,118.42 38.508,117.914C37.072,117.03 32.831,115.503 32.1,118.141C31.473,120.409 35.636,122.025 37.133,122.583Z" style="fill:rgb(38,73,94);fill-rule:nonzero;"/>
        </g>
        <g transform="matrix(0.793446,0,0,0.793446,12.3655,-5.21159)">
            <path d="M52.163,128.549C53.171,128.73 54.336,128.794 55.086,128.097C55.981,127.264 55.764,125.691 54.922,124.804C54.08,123.917 52.821,123.572 51.613,123.383C50.361,123.187 49.09,123.116 47.824,123.173C45.864,123.261 44.531,124.452 45.83,126.2C46.904,127.646 50.536,128.256 52.163,128.549Z" style="fill:rgb(38,73,94);fill-rule:nonzero;"/>
        </g>
    </g>
</svg>
